<svg xmlns="http://www.w3.org/2000/svg" viewBox="0 0 512 512" width="512" height="512">
  <defs>
    <linearGradient id="bg" x1="0" y1="0" x2="1" y2="1">
      <stop offset="0" stop-color="#A99BF7"/>
      <stop offset="1" stop-color="#8B7DF2"/>
    </linearGradient>
  </defs>
  <rect width="512" height="512" rx="128" fill="url(#bg)"/>

  <!-- 하트 -->
  <path d="M256 392 C168 326 120 276 120 212 C120 170 152 140 192 140
           C222 140 246 160 256 186 C266 160 290 140 320 140
           C360 140 392 170 392 212 C392 276 344 326 256 392 Z"
        fill="#FFFFFF"/>

  <!-- 하트 안 원화 -->
  <text x="256" y="280" font-family="Jua, 'Noto Sans KR', sans-serif" font-size="118"
        fill="#8B7DF2" text-anchor="middle" font-weight="700">₩</text>

  <!-- 반짝이 -->
  <path d="M150 150 l8 18 18 8 -18 8 -8 18 -8 -18 -18 -8 18 -8 z" fill="#7FD1C1"/>
  <path d="M372 322 l6 14 14 6 -14 6 -6 14 -6 -14 -14 -6 14 -6 z" fill="#F6B6C8"/>
</svg>
